<svg width="55" height="56" viewBox="0 0 55 56" fill="none" xmlns="http://www.w3.org/2000/svg">
<path d="M29.3147 28.592C28.8168 26.88 26.1508 24.768 24.4805 24.768V23.168C26.8735 23.168 30.1499 25.728 30.8565 28.144L29.3147 28.592Z" fill="#083973" stroke="#083973"/>
<path d="M31.9007 45.632C30.3588 45.632 29.0097 44.592 28.6243 43.12L27.5964 39.152L26.4882 43.152C26.0867 44.608 24.7376 45.632 23.2119 45.632C21.5576 45.632 20.1443 44.448 19.8552 42.816L17.8316 31.104C17.5746 29.648 17.7513 28.256 18.3134 27.072C19.4376 24.704 21.8628 23.184 24.4967 23.184C25.5407 23.184 26.5685 23.424 27.5161 23.888C28.4476 23.424 29.4916 23.184 30.5355 23.184C33.3782 23.184 35.964 24.976 36.9437 27.632C37.3291 28.656 37.4094 29.792 37.2007 31.04L35.2413 42.848C34.9682 44.464 33.571 45.648 31.9167 45.648L31.9007 45.632ZM27.6285 35.248C27.9979 35.248 28.3031 35.504 28.3994 35.84L30.1822 42.704C30.3749 43.472 31.0816 44.016 31.8846 44.016C32.7519 44.016 33.4907 43.408 33.6191 42.56L35.5785 30.752C35.7391 29.792 35.6749 28.928 35.4019 28.16C34.647 26.128 32.6716 24.768 30.5034 24.768C29.5879 24.768 28.6885 25.008 27.8855 25.472C27.6285 25.616 27.3234 25.616 27.0825 25.472C26.2794 25.008 25.38 24.768 24.4646 24.768C22.457 24.768 20.594 25.936 19.7428 27.744C19.3252 28.624 19.1967 29.696 19.4055 30.816L21.4291 42.528C21.5737 43.392 22.3285 44.016 23.1958 44.016C23.9988 44.016 24.7055 43.472 24.9303 42.704L26.8416 35.824C26.9379 35.472 27.2591 35.232 27.6125 35.232L27.6285 35.248Z" fill="#083973" stroke="#083973"/>
<path d="M53.197 54H1.80303C1.35333 54 1 53.648 1 53.2V6.15999C1 5.71199 1.35333 5.35999 1.80303 5.35999H53.197C53.6467 5.35999 54 5.71199 54 6.15999V53.2C54 53.648 53.6467 54 53.197 54ZM2.60606 52.4H52.3939V6.95999H2.60606V52.4Z" fill="#083973" stroke="#083973"/>
<path d="M53.1969 14H1.80298V15.6H53.1969V14Z" fill="#083973" stroke="#083973"/>
<path d="M15.4544 2H13.8484V10.144H15.4544V2Z" fill="#083973" stroke="#083973"/>
<path d="M41.1515 2H39.5454V10.144H41.1515V2Z" fill="#083973" stroke="#083973"/>
</svg>
