<svg width="56" height="56" viewBox="0 0 56 56" fill="none" xmlns="http://www.w3.org/2000/svg">
<rect width="56" height="56" fill="#9D9D9D"/>
<g id="Home Page" clip-path="url(#clip0_0_1)">
<rect width="1600" height="4850" transform="translate(-649 -1708)" fill="#F0FBFF"/>
<g id="Layer_1" clip-path="url(#clip1_0_1)">
<g id="Vector" filter="url(#filter0_d_0_1)">
<path d="M477.122 96.1375C474.37 95.656 471.618 95.1915 468.866 94.7445C312.217 69.3988 202.28 -71.9973 212.307 -230.314C213.219 -244.603 213.666 -258.995 213.666 -273.508C213.666 -274.316 213.666 -275.142 213.666 -275.95C213.322 -371.194 297.804 -444.893 391.917 -430.088C464.515 -418.67 540.965 -418.859 619.307 -432.615C891.362 -480.418 1105.13 -689.942 1157.19 -961.162C1243.77 -1412.31 879.099 -1803.99 435.208 -1764.21C115.975 -1735.62 -139.518 -1483.5 -171.852 -1164.7C-172.506 -1158.2 -173.073 -1151.72 -173.555 -1145.25C-182.395 -1024.8 -286.932 -934.974 -407.377 -944.121C-410.284 -944.345 -413.19 -944.551 -416.097 -944.723C-815.133 -969.863 -1149.52 -641.159 -1131.01 -241.852C-1114.48 114.897 -819.949 399.048 -459.043 399.048C-457.977 399.048 -456.91 398.894 -455.844 399.048C-27.3625 461.261 -88.2474 1079.17 -538.107 1004.01C-541.083 1003.51 -544.127 1003.46 -547.137 1003.2C-965.677 968.623 -1314.97 1324.56 -1272.49 1742.29C-1233.9 2121.85 -879.578 2408.1 -476.259 2334.37C-231.31 2289.59 9.54675 2051.47 56.5691 1806.99C63.4487 1771.21 67.4906 1735.79 68.8837 1700.93C74.9205 1549.56 198.651 1429.33 350.158 1430.73C352.291 1430.74 354.406 1430.76 356.539 1430.76C767.253 1430.76 1092.01 1062.78 1018.93 638.595C971.252 361.889 753.838 144.181 477.139 96.1375H477.122Z" fill="#DBF4FF"/>
</g>
</g>
<g id="Frame 4">
<g id="Group 27">
<g id="Rectangle 6" filter="url(#filter1_d_0_1)">
<rect x="-59" y="-47" width="420" height="280" rx="26" fill="white"/>
</g>
<g id="Layer_1_2">
<g id="Group 7">
<path id="Vector_2" d="M50.1834 42.69C49.3483 42.69 48.5131 42.4687 47.7743 42.0578L34.4119 34.5339H18.7046C17.0343 34.5339 15.4604 33.6804 14.5931 32.2894L2.70827 13.3849C2.03373 12.3258 1.841 11.0771 2.13009 9.86003C2.43524 8.64294 3.20615 7.59971 4.31433 6.95165C6.57888 5.6239 9.53403 6.31939 10.9152 8.51649L21.4028 25.1765H35.6968C36.548 25.1765 37.3831 25.3978 38.1058 25.8087L52.5925 33.9649C53.7168 34.5971 54.5037 35.6087 54.841 36.8258C55.1622 38.0271 54.9855 39.2916 54.3431 40.3665C53.4919 41.8049 51.8858 42.69 50.1834 42.69ZM6.80373 7.85261C6.24161 7.85261 5.66342 7.99487 5.13342 8.311C4.39464 8.73778 3.8807 9.43326 3.68797 10.2394C3.49524 11.0297 3.62373 11.8516 4.07342 12.5629L15.9583 31.4675C16.5365 32.3842 17.5804 32.9533 18.7046 32.9533H34.6207C34.7652 32.9533 34.8937 32.9849 35.0222 33.0639L48.5774 40.6984C50.071 41.5362 52.1107 40.9987 52.9619 39.5762C53.3955 38.8649 53.508 38.0429 53.2992 37.2526C53.0904 36.4465 52.5604 35.7826 51.8055 35.3558L37.3189 27.1997C36.821 26.931 36.2749 26.7729 35.6968 26.7729H20.9531C20.6801 26.7729 20.4231 26.6307 20.2625 26.3936L9.55009 9.33842C8.93979 8.37423 7.89585 7.85261 6.80373 7.85261Z" fill="#083973" stroke="#083973"/>
<path id="Vector_3" d="M30.7822 45.0926H24.7435C24.2938 45.0926 23.9404 44.7449 23.9404 44.3023V33.7752C23.9404 33.3326 24.2938 32.9849 24.7435 32.9849H30.7822C31.2319 32.9849 31.5853 33.3326 31.5853 33.7752V44.3023C31.5853 44.7449 31.2319 45.0926 30.7822 45.0926ZM25.5465 43.512H29.9792V34.5655H25.5465V43.512Z" fill="#083973" stroke="#083973"/>
<path id="Vector_4" d="M37.9774 52H17.5804C17.2592 52 16.954 51.8104 16.8416 51.51C16.7131 51.2097 16.7934 50.8778 17.0183 50.6407L24.1974 43.7333C24.3419 43.591 24.5507 43.512 24.7595 43.512H30.7983C31.007 43.512 31.2158 43.591 31.3604 43.7333L38.5395 50.6407C38.7804 50.862 38.8446 51.2097 38.7161 51.51C38.5877 51.8104 38.2986 52 37.9774 52ZM19.5398 50.4194H36.0019L30.461 45.0926H25.0807L19.5398 50.4194Z" fill="#083973" stroke="#083973"/>
<path id="Vector_5" d="M42.956 50.4193H12.5693V52H42.956V50.4193Z" fill="#083973" stroke="#083973"/>
<path id="Vector_6" d="M36.5158 25.9668H34.9098V7.50484C34.9098 5.89258 33.5446 4.58065 31.8743 4.58065C31.0552 4.58065 30.2843 4.89677 29.7061 5.45C29.3046 5.84516 29.0316 6.33516 28.9031 6.87258L27.3452 6.52484C27.5379 5.6871 27.9716 4.92839 28.5819 4.32774C29.4652 3.47419 30.6376 3 31.8743 3C34.4279 3 36.5158 5.02323 36.5158 7.50484V25.951V25.9668Z" fill="#083973" stroke="#083973"/>
<path id="Vector_7" d="M31.2961 13.7484C31.2158 13.7484 31.1355 13.7484 31.0392 13.701L21.3225 10.5397C21.1137 10.4765 20.9531 10.3342 20.8567 10.1446C20.7604 9.95488 20.7443 9.73359 20.8086 9.54391C21.8525 6.54069 25.2092 4.91262 28.3089 5.92424C29.8186 6.41424 31.0392 7.45746 31.7458 8.84843C32.4364 10.2236 32.5489 11.7726 32.0349 13.211C31.9225 13.5429 31.6013 13.7484 31.2801 13.7484H31.2961ZM22.6716 9.32262L30.718 11.9307C30.8304 11.1246 30.7019 10.2868 30.3164 9.54391C29.8025 8.5323 28.9192 7.77359 27.811 7.42585C25.8195 6.77778 23.6674 7.61553 22.6716 9.32262Z" fill="#083973" stroke="#083973"/>
<path id="Vector_8" d="M20.2864 25.5367L18.6274 28.0385L19.9724 28.9023L21.6314 26.4006L20.2864 25.5367Z" fill="#083973" stroke="#083973"/>
</g>
</g>
</g>
</g>
</g>
<defs>
<filter id="filter0_d_0_1" x="-1308" y="-1799" width="2510" height="4177" filterUnits="userSpaceOnUse" color-interpolation-filters="sRGB">
<feFlood flood-opacity="0" result="BackgroundImageFix"/>
<feColorMatrix in="SourceAlpha" type="matrix" values="0 0 0 0 0 0 0 0 0 0 0 0 0 0 0 0 0 0 127 0" result="hardAlpha"/>
<feOffset/>
<feGaussianBlur stdDeviation="16"/>
<feComposite in2="hardAlpha" operator="out"/>
<feColorMatrix type="matrix" values="0 0 0 0 0 0 0 0 0 0 0 0 0 0 0 0 0 0 0.09 0"/>
<feBlend mode="normal" in2="BackgroundImageFix" result="effect1_dropShadow_0_1"/>
<feBlend mode="normal" in="SourceGraphic" in2="effect1_dropShadow_0_1" result="shape"/>
</filter>
<filter id="filter1_d_0_1" x="-78" y="-66" width="458" height="318" filterUnits="userSpaceOnUse" color-interpolation-filters="sRGB">
<feFlood flood-opacity="0" result="BackgroundImageFix"/>
<feColorMatrix in="SourceAlpha" type="matrix" values="0 0 0 0 0 0 0 0 0 0 0 0 0 0 0 0 0 0 127 0" result="hardAlpha"/>
<feOffset/>
<feGaussianBlur stdDeviation="9.5"/>
<feComposite in2="hardAlpha" operator="out"/>
<feColorMatrix type="matrix" values="0 0 0 0 0 0 0 0 0 0 0 0 0 0 0 0 0 0 0.16 0"/>
<feBlend mode="normal" in2="BackgroundImageFix" result="effect1_dropShadow_0_1"/>
<feBlend mode="normal" in="SourceGraphic" in2="effect1_dropShadow_0_1" result="shape"/>
</filter>
<clipPath id="clip0_0_1">
<rect width="1600" height="4850" fill="white" transform="translate(-649 -1708)"/>
</clipPath>
<clipPath id="clip1_0_1">
<rect width="2350" height="4745" fill="white" transform="translate(-1162 -1826)"/>
</clipPath>
</defs>
</svg>
