<svg width="56" height="56" viewBox="0 0 56 56" fill="none" xmlns="http://www.w3.org/2000/svg">
<path d="M24.1494 17.4379C26.5846 17.4379 28.7227 18.6406 30.0294 20.4818" stroke="#152F72" stroke-width="3" stroke-linejoin="round"/>
<path d="M38.3892 25.7382C38.5822 24.5354 38.5525 23.2882 38.1219 22.1448C37.0974 19.3979 34.4543 17.4379 31.3659 17.4379C30.0443 17.4379 28.8268 17.7942 27.7577 18.403C26.7034 17.7942 25.471 17.4379 24.1495 17.4379C21.2689 17.4379 18.7892 19.1157 17.631 21.5509C17.0074 22.8724 16.8886 24.3721 17.141 25.8124L19.5613 39.8739C19.8137 41.3588 21.1055 42.4576 22.6201 42.4576C24.0159 42.4576 25.2334 41.5221 25.6195 40.1857L27.9062 31.93L30.0443 40.156C30.4007 41.5073 31.6183 42.4576 33.014 42.4576C34.5137 42.4576 35.7907 41.3736 36.0283 39.9036C36.6816 35.9539 37.914 28.5148 38.3743 25.7382H38.3892Z" stroke="#152F72" stroke-width="3" stroke-linejoin="round"/>
<path d="M51.5152 4H4V51.5152H51.5152V4Z" stroke="#152F72" stroke-width="3" stroke-linejoin="round"/>
<path d="M8.88525 8.45459H19.2792" stroke="#152F72" stroke-width="3" stroke-linejoin="round"/>
<path d="M8.88525 12.9091H14.8246" stroke="#152F72" stroke-width="3" stroke-linejoin="round"/>
</svg>
